<svg width="28" height="28" viewBox="0 0 28 28" fill="none" xmlns="http://www.w3.org/2000/svg">
<circle cx="14" cy="14" r="14" transform="rotate(90 14 14)" fill="#F7921D"/>
<path fill-rule="evenodd" clip-rule="evenodd" d="M13.9996 19.5999C13.613 19.5999 13.2996 19.2865 13.2996 18.8999L13.2996 9.09985C13.2996 8.71325 13.613 8.39985 13.9996 8.39985C14.3862 8.39985 14.6996 8.71325 14.6996 9.09985L14.6996 18.8999C14.6996 19.2865 14.3862 19.5999 13.9996 19.5999Z" fill="white"/>
<path fill-rule="evenodd" clip-rule="evenodd" d="M8.60462 14.4949C8.33126 14.2216 8.33126 13.7783 8.60462 13.505L13.5046 8.60498C13.778 8.33161 14.2212 8.33161 14.4946 8.60498L19.3946 13.505C19.6679 13.7783 19.6679 14.2216 19.3946 14.4949C19.1212 14.7683 18.678 14.7683 18.4046 14.4949L13.9996 10.0899L9.59457 14.4949C9.32121 14.7683 8.87799 14.7683 8.60462 14.4949Z" fill="white"/>
</svg>
