<svg width="28" height="28" viewBox="0 0 28 28" fill="none" xmlns="http://www.w3.org/2000/svg">
<circle cx="14" cy="14" r="14" transform="rotate(-90 14 14)" fill="#F7921D"/>
<path fill-rule="evenodd" clip-rule="evenodd" d="M14.0004 8.40015C14.387 8.40015 14.7004 8.71355 14.7004 9.10015L14.7004 18.9001C14.7004 19.2867 14.387 19.6001 14.0004 19.6001C13.6138 19.6001 13.3004 19.2867 13.3004 18.9001L13.3004 9.10015C13.3004 8.71355 13.6138 8.40015 14.0004 8.40015Z" fill="white"/>
<path fill-rule="evenodd" clip-rule="evenodd" d="M19.3954 13.5051C19.6687 13.7784 19.6687 14.2217 19.3954 14.495L14.4954 19.395C14.222 19.6684 13.7788 19.6684 13.5054 19.395L8.60543 14.495C8.33206 14.2217 8.33206 13.7784 8.60543 13.5051C8.87879 13.2317 9.32201 13.2317 9.59538 13.5051L14.0004 17.9101L18.4054 13.5051C18.6788 13.2317 19.122 13.2317 19.3954 13.5051Z" fill="white"/>
</svg>
